<svg width="300" height="300" viewBox="0 0 300 300" fill="none" xmlns="http://www.w3.org/2000/svg">
  <path d="M20,20 L280,20 L280,280 L20,280 Z" fill="none" stroke="#D4AF37" stroke-width="2"/>
  <!-- Top Left Corner -->
  <path d="M10,10 C15,15 20,15 25,10 C30,5 35,5 40,10 C45,15 50,15 55,10" fill="none" stroke="#D4AF37" stroke-width="2"/>
  <!-- Top Right Corner -->
  <path d="M245,10 C250,15 255,15 260,10 C265,5 270,5 275,10 C280,15 285,15 290,10" fill="none" stroke="#D4AF37" stroke-width="2" transform="translate(300, 0) scale(-1, 1)"/>
  <!-- Bottom Left Corner -->
  <path d="M10,290 C15,285 20,285 25,290 C30,295 35,295 40,290 C45,285 50,285 55,290" fill="none" stroke="#D4AF37" stroke-width="2" transform="translate(0, 300) scale(1, -1)"/>
  <!-- Bottom Right Corner -->
  <path d="M245,290 C250,285 255,285 260,290 C265,295 270,295 275,290 C280,285 285,285 290,290" fill="none" stroke="#D4AF37" stroke-width="2" transform="translate(300, 300) scale(-1, -1)"/>
  <!-- Decorative Elements -->
  <path d="M40,20 C45,15 50,15 55,20 C60,25 65,25 70,20" fill="none" stroke="#D4AF37" stroke-width="2"/>
  <path d="M40,280 C45,285 50,285 55,280 C60,275 65,275 70,280" fill="none" stroke="#D4AF37" stroke-width="2"/>
  <path d="M230,20 C235,15 240,15 245,20 C250,25 255,25 260,20" fill="none" stroke="#D4AF37" stroke-width="2"/>
  <path d="M230,280 C235,285 240,285 245,280 C250,275 255,275 260,280" fill="none" stroke="#D4AF37" stroke-width="2"/>
</svg> 